<?xml version="1.0" encoding="utf-8"?>
<!-- Generator: Adobe Illustrator 24.1.2, SVG Export Plug-In . SVG Version: 6.00 Build 0)  -->
<svg version="1.1" id="レイヤー_1" xmlns="http://www.w3.org/2000/svg" xmlns:xlink="http://www.w3.org/1999/xlink" x="0px"
	 y="0px" viewBox="0 0 360 100" style="enable-background:new 0 0 360 100;" xml:space="preserve">
<style type="text/css">
	.st0{fill:#FFFFFF;}
</style>
<path d="M34.31,29.29c-5.15,0-9.31,0.82-12.64,2.42c-0.67,0.32-1.45-0.18-1.45-0.93v-19.9c0-0.28-0.23-0.51-0.51-0.51h-9.2
	c-0.28,0-0.51,0.23-0.51,0.51v48.57c0,19.75,5.86,30.17,24.31,30.17c18.3,0,24.26-10.42,24.26-30.17
	C58.57,39.83,52.61,29.29,34.31,29.29z M34.29,77.61c-10.95,0-13.55-5.03-13.55-18.15s2.6-18.15,13.55-18.15
	c10.81,0,13.55,5.03,13.55,18.15C47.83,72.61,45.1,77.61,34.29,77.61z M316.77,59.46v28.38c0,0.28-0.23,0.51-0.51,0.51h-9.97
	c-0.28,0-0.51-0.23-0.51-0.51V64.57c0-15.91-0.26-23.51-9.46-23.52c-9.2,0.01-9.33,7.61-9.33,23.52v23.26
	c0,0.28-0.23,0.51-0.51,0.51h-9.97c-0.28,0-0.51-0.23-0.51-0.51V64.57c0-15.91-0.13-23.51-9.33-23.52
	c-9.2,0.01-9.46,7.61-9.46,23.52v23.26c0,0.28-0.23,0.51-0.51,0.51h-9.97c-0.28,0-0.51-0.23-0.51-0.51V59.46
	c0-16.45,1.01-30.15,20.45-30.16c6.63,0,11.11,1.61,14.14,4.36c0.39,0.35,0.98,0.35,1.36,0c3.03-2.75,7.51-4.36,14.14-4.36
	C315.76,29.31,316.77,43.01,316.77,59.46z M86.31,87.83c0,0.28-0.23,0.51-0.51,0.51H75.57c-0.28,0-0.51-0.23-0.51-0.51V55.88
	c0-20.69,10.45-26.59,25.56-26.59h8.69c0.28,0,0.51,0.23,0.51,0.51V40.8c0,0.28-0.23,0.51-0.51,0.51h-8.69
	c-10.81,0-14.32,3.72-14.32,14.57V87.83z M207.93,29.29c-18.5,0-24.31,10.54-24.31,30.17c0,19.75,5.86,30.17,24.31,30.17
	c18.3,0,24.26-10.42,24.26-30.17C232.19,39.83,226.23,29.29,207.93,29.29z M207.91,77.61c-10.95,0-13.55-5.03-13.55-18.15
	s2.6-18.15,13.55-18.15c10.81,0,13.55,5.03,13.55,18.15C221.45,72.61,218.72,77.61,207.91,77.61z M146.57,29.29
	c-18.5,0-24.31,10.54-24.31,30.17c0,19.75,5.86,30.17,24.31,30.17c18.3,0,24.26-10.42,24.26-30.17
	C170.83,39.83,164.87,29.29,146.57,29.29z M146.54,77.61c-10.95,0-13.55-5.03-13.55-18.15s2.6-18.15,13.55-18.15
	c10.81,0,13.55,5.03,13.55,18.15C160.09,72.61,157.36,77.61,146.54,77.61z M346.27,14.11c-0.05-0.05-0.05-0.05-0.1-0.1
	c-4.97-4.89-13.04-4.84-17.96,0.1c-5.02,4.99-5.02,13.05,0,18.09c0.05,0.05,0.05,0.05,0.1,0.1c4.97,4.89,13.04,4.84,17.96-0.1
	C351.24,27.16,351.24,19.1,346.27,14.11z M343.9,29.85c-0.05,0.05-0.05,0.05-0.05,0.05c-3.66,3.63-9.67,3.63-13.33-0.05
	c-3.71-3.74-3.71-9.69,0-13.38l0.05-0.05c3.71-3.63,9.67-3.63,13.33,0.05C347.57,20.15,347.57,26.11,343.9,29.85z M333.12,25.81
	l2.07,0c0.11,0,0.2,0.07,0.23,0.17c0.3,0.95,0.89,1.5,2,1.45c0.77-0.04,1.43-0.67,1.39-1.45c-0.12-2.42-5.6-1.72-5.59-5.91
	c0-2.19,1.64-3.58,4.11-3.57c2.46,0,3.94,1.44,4.24,3.68c0.02,0.14-0.1,0.27-0.24,0.27l-2.08,0c-0.11,0-0.2-0.08-0.23-0.18
	c-0.22-0.82-0.7-1.4-1.67-1.41c-0.89,0-1.43,0.44-1.43,1.2c0,2.3,5.6,1.62,5.59,6.05c0,2.23-1.68,3.69-4.18,3.69
	c-2.57,0-4.15-1.49-4.45-3.72C332.85,25.94,332.97,25.81,333.12,25.81z"/>
</svg>
