<?xml version="1.0" encoding="utf-8"?>
<!-- Generator: Adobe Illustrator 24.1.2, SVG Export Plug-In . SVG Version: 6.00 Build 0)  -->
<svg version="1.1" id="レイヤー_1" xmlns="http://www.w3.org/2000/svg" xmlns:xlink="http://www.w3.org/1999/xlink" x="0px"
	 y="0px" viewBox="0 0 100 100" style="enable-background:new 0 0 100 100;" xml:space="preserve">
<style type="text/css">
	.st0{fill:#FFFFFF;}
</style>
<path d="M49.86,82.38c-5.13,0-10.28,0.24-15.4-0.05c-8.81-0.51-16.45-8.02-16.74-16.87c-0.34-10.26-0.36-20.54,0-30.8
	c0.32-9.38,8.61-16.99,18.02-17.09c9.49-0.1,18.98-0.09,28.47,0c9.84,0.09,18.15,8.35,18.25,18.18c0.1,9.49,0.09,18.98,0,28.47
	c-0.08,9.51-7.7,17.61-17.21,18.14c-5.12,0.28-10.27,0.05-15.4,0.05C49.86,82.4,49.86,82.39,49.86,82.38z M76.28,49.97l0.02,0
	c0-4.8,0.07-9.61-0.02-14.41c-0.12-6.78-4.82-11.85-11.54-11.99c-9.8-0.21-19.62-0.2-29.42-0.01C28.8,23.68,23.8,28.7,23.7,35.12
	c-0.15,9.81-0.14,19.62,0,29.43c0.1,6.48,5.14,11.48,11.58,11.56c9.93,0.12,19.87,0.13,29.8-0.02c6.02-0.09,11-5.12,11.16-11.12
	C76.39,59.97,76.28,54.97,76.28,49.97z M50.01,66.79c-9.28,0.02-16.74-7.41-16.76-16.68c-0.02-9.35,7.48-16.91,16.78-16.92
	c9.14-0.01,16.76,7.57,16.82,16.74C66.91,59.2,59.34,66.77,50.01,66.79z M39.2,49.75c-0.05,6.02,4.83,10.93,10.85,10.93
	c5.89,0,10.74-4.89,10.75-10.83c0.01-5.95-4.79-10.79-10.74-10.82C44.14,39.01,39.25,43.83,39.2,49.75z M67.3,28.6
	c-2.12,0.01-3.95,1.87-3.93,4c0.02,2.06,1.76,3.82,3.85,3.87c2.15,0.06,3.98-1.72,4-3.89C71.24,30.44,69.43,28.6,67.3,28.6z"/>
</svg>
