<?xml version="1.0" encoding="utf-8"?>
<!-- Generator: Adobe Illustrator 25.0.1, SVG Export Plug-In . SVG Version: 6.00 Build 0)  -->
<svg version="1.1" id="レイヤー_1" xmlns="http://www.w3.org/2000/svg" xmlns:xlink="http://www.w3.org/1999/xlink" x="0px"
	 y="0px" viewBox="0 0 100 100" style="enable-background:new 0 0 100 100;" xml:space="preserve">
<style type="text/css">
	.st0{fill:#FFFFFF;}
</style>
<path d="M50.029,14.942C30.684,14.942,15,30.626,15,49.971c0,14.848,9.226,27.533,22.257,32.636
	c-0.317-2.768-0.577-7.035,0.115-10.062c0.634-2.739,4.094-17.413,4.094-17.413s-1.038-2.105-1.038-5.189
	c0-4.872,2.825-8.505,6.343-8.505c2.998,0,4.44,2.249,4.44,4.93c0,2.998-1.903,7.496-2.912,11.676
	c-0.836,3.488,1.759,6.343,5.189,6.343c6.227,0,11.013-6.573,11.013-16.03c0-8.39-6.026-14.242-14.646-14.242
	c-9.975,0-15.828,7.467-15.828,15.194c0,2.998,1.153,6.227,2.595,7.986c0.288,0.346,0.317,0.663,0.231,1.009
	c-0.259,1.096-0.865,3.488-0.98,3.979c-0.144,0.634-0.519,0.778-1.182,0.461c-4.382-2.047-7.121-8.418-7.121-13.579
	c0-11.042,8.015-21.19,23.151-21.19c12.138,0,21.594,8.649,21.594,20.239c0,12.08-7.611,21.796-18.163,21.796
	c-3.546,0-6.89-1.845-8.015-4.036c0,0-1.759,6.689-2.191,8.332c-0.778,3.056-2.912,6.862-4.353,9.197
	c3.287,1.009,6.746,1.557,10.379,1.557C69.316,85.058,85,69.374,85,50.029C85.057,30.626,69.374,14.942,50.029,14.942z"/>
</svg>
