<?xml version="1.0" encoding="utf-8"?>
<!-- Generator: Adobe Illustrator 24.1.2, SVG Export Plug-In . SVG Version: 6.00 Build 0)  -->
<svg version="1.1" id="レイヤー_1" xmlns="http://www.w3.org/2000/svg" xmlns:xlink="http://www.w3.org/1999/xlink" x="0px"
	 y="0px" viewBox="0 0 100 100" style="enable-background:new 0 0 100 100;" xml:space="preserve">
<style type="text/css">
	.st0{fill:#FFFFFF;}
</style>
<g>
	<path d="M54.8,53.52c-0.01-1.08,0.29-1.37,1.36-1.35c2.9,0.07,5.79,0.02,8.81,0.02c0.5-3.81,0.99-7.55,1.49-11.42
		c-3.97,0-7.74,0-11.45,0c0-3.08-0.16-6.05,0.05-9c0.18-2.65,1.33-3.68,3.92-4.03c1.35-0.18,2.72-0.19,4.09-0.23
		c1.31-0.04,2.62-0.01,3.84-0.01c0-3.56,0-6.94,0-10.45c-4.16,0-8.28-0.31-12.33,0.07c-5.86,0.56-10.49,5.25-11.12,11.08
		c-0.39,3.67-0.26,7.39-0.36,11.09c-0.01,0.47,0,0.94,0,1.53c-3.45,0-6.74,0-10.01,0c0,3.85,0,7.57,0,11.36
		c2.95,0,5.81,0.05,8.67-0.02c1.06-0.03,1.37,0.26,1.36,1.34c-0.04,9.23-0.02,18.47-0.02,27.7c0,0.24,0,0.48,0,0.73h11.73
		c0-0.26,0-0.49,0-0.72C54.83,71.99,54.85,62.75,54.8,53.52z"/>
</g>
</svg>
