<?xml version="1.0" encoding="utf-8"?>
<!-- Generator: Adobe Illustrator 24.1.2, SVG Export Plug-In . SVG Version: 6.00 Build 0)  -->
<svg version="1.1" id="レイヤー_1" xmlns="http://www.w3.org/2000/svg" xmlns:xlink="http://www.w3.org/1999/xlink" x="0px"
	 y="0px" viewBox="0 0 100 100" style="enable-background:new 0 0 100 100;" xml:space="preserve">
<style type="text/css">
	.st0{fill:#FFFFFF;}
</style>
<g id="Logo__x2014__FIXED_2_">
	<path d="M36.83,78.75c26.7,0,41.3-22.13,41.3-41.3c0-0.63,0-1.26-0.03-1.87c2.83-2.05,5.3-4.61,7.26-7.53
		c-2.59,1.14-5.39,1.93-8.34,2.29c3.01-1.81,5.3-4.64,6.38-8.04c-2.8,1.66-5.9,2.86-9.21,3.52c-2.65-2.83-6.41-4.58-10.6-4.58
		c-8.01,0-14.51,6.5-14.51,14.51c0,1.14,0.12,2.26,0.39,3.31c-12.07-0.6-22.76-6.38-29.92-15.17c-1.23,2.14-1.96,4.64-1.96,7.29
		c0,5.03,2.56,9.48,6.47,12.07c-2.38-0.06-4.61-0.72-6.56-1.81c0,0.06,0,0.12,0,0.18c0,7.04,5,12.88,11.65,14.24
		c-1.2,0.33-2.5,0.51-3.82,0.51c-0.93,0-1.84-0.09-2.74-0.27c1.84,5.78,7.2,9.96,13.55,10.09c-4.97,3.88-11.23,6.2-18.03,6.2
		c-1.17,0-2.32-0.06-3.46-0.21C20.99,76.34,28.64,78.75,36.83,78.75"/>
</g>
</svg>
