<?xml version="1.0" encoding="utf-8"?>
<!-- Generator: Adobe Illustrator 25.0.1, SVG Export Plug-In . SVG Version: 6.00 Build 0)  -->
<svg version="1.1" id="レイヤー_1" xmlns="http://www.w3.org/2000/svg" xmlns:xlink="http://www.w3.org/1999/xlink" x="0px"
	 y="0px" viewBox="0 0 910 860" style="enable-background:new 0 0 910 860;" xml:space="preserve">
<style type="text/css">
	.st0{fill:#AFAFAF;}
	.st1{fill:none;stroke:#AFAFAF;stroke-width:2;stroke-miterlimit:10;}
</style>
<g>
	<path d="M203.2,556.1v-26.2c0.9-0.2,5.1-0.5,7.4-0.5c6.5,0,9.5,2.4,9.5,7.1c0,2.4-1.7,4.8-4.3,5.5c3,0.5,5.6,2.9,5.6,6.6
		c0,4.9-2.6,7.9-10.9,7.9C206.6,556.5,205.1,556.4,203.2,556.1z M207,533v7.9h3.1c4.5,0,6-2,6-4.4s-1.2-3.8-5.7-3.8
		C209.2,532.7,208.2,532.8,207,533z M207,544.2v8.9c1.2,0.1,2.3,0.2,4.6,0.2c4.6,0,5.9-2.1,5.9-4.6c0-2.5-1.4-4.4-6.2-4.4H207z"/>
	<path d="M227,536.8h3.2c0.3,0.8,0.3,1.6,0.3,2.5c1.1-1.7,3.1-2.9,5.1-2.9c0.6,0,1.1,0.1,1.4,0.2v3.6c-0.7-0.2-1.3-0.3-1.9-0.3
		c-3.3,0-4.4,1.7-4.4,4.9v11.5H227V536.8z"/>
	<path d="M255.8,556.2h-3.2c-0.3-0.8-0.4-1.2-0.4-2.1c-2,2.1-4,2.5-6.3,2.5c-3.1,0-5.6-2.4-5.6-5.5c0-2.6,1.4-4.8,5.9-6.1l3.2-0.9
		c1.9-0.6,2.6-1.1,2.6-2.2c0-1.3-1-2.3-3.5-2.3c-2.3,0-4.9,0.6-6.6,1.3v-3.1c1.7-0.9,4.3-1.3,6.6-1.3c4.6,0,7.1,1.8,7.1,6.9V556.2z
		 M252.1,545.8c-0.4,0.4-0.7,0.6-1.6,0.9l-3.2,0.9c-2.8,0.8-3.2,1.9-3.2,3.1c0,1.7,1.1,2.7,2.8,2.7c3.3,0,5.2-1.8,5.2-4.1V545.8z"/>
	<path d="M277.7,539.8c0.5,1.2,0.7,2.8,0.7,5.1v11.3h-3.7v-10.1c0-2.9-0.1-3.5-0.4-4.3c-0.4-1.3-1.4-2.2-3.2-2.2c-3.1,0-5,1.9-5,6.7
		v9.8h-3.7v-19.4h3.2c0.3,0.8,0.4,2.1,0.4,3c1.1-2.1,3-3.5,6.2-3.5C274.2,536.3,276.6,537.2,277.7,539.8z"/>
	<path d="M300.7,556.2h-3.2c-0.3-0.8-0.3-1.4-0.3-2.4c-1.2,1.7-2.8,2.8-5.2,2.8c-5.5,0-8-4.1-8-10.1s2.5-10.1,8-10.1
		c2.4,0,4.3,1.5,5,3v-10.7h3.7V556.2z M292.4,539.6c-3.5,0-4.6,2.7-4.6,6.9c0,4.2,1.1,7,4.6,7c3.5,0,4.6-2.8,4.6-7
		C297,542.3,295.9,539.6,292.4,539.6z"/>
	<path d="M319.3,537.6v3.2c-1.4-0.7-3.6-1.4-5.7-1.4c-2,0-3.2,0.9-3.2,2.3c0,1.4,0.8,1.9,3.2,2.8l2.1,0.7c3,1,4.4,2.7,4.4,5.4
		c0,3.9-2.7,6.1-7.8,6.1c-2.3,0-3.9-0.5-5.7-1.3v-3.2c1.4,0.8,3.7,1.5,5.8,1.5c2.6,0,4-0.9,4-2.5c0-1.4-0.8-2.1-3.1-2.8l-2-0.7
		c-2.8-0.9-4.6-2.5-4.6-5.7c0-2.9,2.1-5.5,7-5.5C315.9,536.4,318,536.9,319.3,537.6z"/>
</g>
<g>
	<g>
		<path class="st0" d="M170.2,608v-19.3c0.7-0.2,3.8-0.4,5.4-0.4c4.8,0,7,1.8,7,5.2c0,1.7-1.2,3.5-3.1,4.1c2.2,0.4,4.1,2.2,4.1,4.9
			c0,3.6-1.9,5.8-8.1,5.8C172.8,608.3,171.7,608.2,170.2,608z M173,591v5.9h2.3c3.3,0,4.4-1.5,4.4-3.2s-0.9-2.8-4.2-2.8
			C174.7,590.8,173.9,590.9,173,591z M173,599.2v6.5c0.9,0.1,1.7,0.1,3.4,0.1c3.4,0,4.3-1.5,4.3-3.4s-1.1-3.2-4.6-3.2H173z"/>
		<path class="st0" d="M187.8,593.8h2.3c0.2,0.6,0.3,1.2,0.3,1.8c0.8-1.3,2.3-2.1,3.8-2.1c0.4,0,0.8,0.1,1,0.1v2.7
			c-0.5-0.2-0.9-0.3-1.4-0.3c-2.4,0-3.2,1.3-3.2,3.6v8.5h-2.7V593.8z"/>
		<path class="st0" d="M209.1,608.1h-2.3c-0.2-0.6-0.3-0.9-0.3-1.5c-1.5,1.5-2.9,1.8-4.6,1.8c-2.3,0-4.1-1.8-4.1-4.1
			c0-1.9,1-3.6,4.3-4.5l2.4-0.7c1.4-0.4,1.9-0.8,1.9-1.7c0-1-0.8-1.7-2.5-1.7c-1.7,0-3.6,0.5-4.9,1v-2.3c1.2-0.7,3.2-1,4.9-1
			c3.4,0,5.3,1.3,5.3,5.1V608.1z M206.3,600.4c-0.3,0.3-0.5,0.5-1.2,0.7l-2.3,0.7c-2.1,0.6-2.4,1.4-2.4,2.3c0,1.2,0.8,2,2.1,2
			c2.5,0,3.8-1.3,3.8-3V600.4z"/>
		<path class="st0" d="M225.2,596c0.4,0.9,0.5,2.1,0.5,3.8v8.3H223v-7.4c0-2.1-0.1-2.5-0.3-3.2c-0.3-1-1.1-1.6-2.3-1.6
			c-2.3,0-3.7,1.4-3.7,5v7.2H214v-14.3h2.3c0.2,0.6,0.3,1.5,0.3,2.2c0.8-1.6,2.2-2.6,4.6-2.6C222.6,593.4,224.4,594.1,225.2,596z"/>
		<path class="st0" d="M242.1,608.1h-2.3c-0.2-0.6-0.3-1.1-0.3-1.7c-0.9,1.3-2,2.1-3.8,2.1c-4,0-5.9-3-5.9-7.5
			c0-4.5,1.9-7.5,5.9-7.5c1.7,0,3.2,1.1,3.7,2.2v-7.9h2.7V608.1z M236,595.8c-2.6,0-3.4,2-3.4,5.1c0,3.1,0.8,5.2,3.4,5.2
			s3.4-2.1,3.4-5.2C239.4,597.9,238.6,595.8,236,595.8z"/>
		<path class="st0" d="M255.7,587.6c1.1,0,1.9,0.9,1.9,1.9s-0.9,1.9-1.9,1.9c-1.1,0-1.9-0.9-1.9-1.9S254.6,587.6,255.7,587.6z
			 M254.3,593.8h2.7v14.3h-2.7V593.8z"/>
		<path class="st0" d="M273.6,608.1h-2.3c-0.2-0.6-0.3-1.1-0.3-1.7c-0.9,1.3-2,2.1-3.8,2.1c-4,0-5.9-3-5.9-7.5
			c0-4.5,1.9-7.5,5.9-7.5c1.7,0,3.2,1.1,3.7,2.2v-7.9h2.7V608.1z M267.4,595.8c-2.6,0-3.4,2-3.4,5.1c0,3.1,0.8,5.2,3.4,5.2
			c2.6,0,3.4-2.1,3.4-5.2C270.8,597.9,270,595.8,267.4,595.8z"/>
		<path class="st0" d="M282.3,602.5c-0.9,0.2-1.3,0.6-1.3,1.4c0,0.8,0.9,2.2,3.1,2.2c1.8,0,3.8-0.5,5.4-1.3v2.3
			c-1.3,0.8-3.2,1.3-5.4,1.3c-4.2,0-6.4-3-6.4-7.5c0-4.5,2.8-7.5,6.7-7.5c3.6,0,5.2,1.8,5.2,4.1c0,2.5-1.5,3.6-4.4,4.3L282.3,602.5z
			 M280.5,601.2c0.3-0.3,0.8-0.6,1.5-0.7l2.4-0.6c1.7-0.4,2.5-1.1,2.5-2.1c0-1.3-0.8-2-2.4-2c-2.4,0-3.9,2-3.9,5.2V601.2z"/>
		<path class="st0" d="M305.1,596c0.4,0.9,0.5,2.1,0.5,3.8v8.3h-2.7v-7.4c0-2.1-0.1-2.5-0.3-3.2c-0.3-1-1.1-1.6-2.3-1.6
			c-2.3,0-3.7,1.4-3.7,5v7.2h-2.7v-14.3h2.3c0.2,0.6,0.3,1.5,0.3,2.2c0.8-1.6,2.2-2.6,4.6-2.6C302.5,593.4,304.3,594.1,305.1,596z"
			/>
		<path class="st0" d="M311,596h-2v-2.2h2v-3.4c0.3-0.1,1.3-0.6,2.7-0.7v4.1h3.5v2.2h-3.5v7.3c0,2.2,0.3,2.7,2,2.7
			c0.7,0,1.7-0.3,2-0.4v2.4c-0.3,0.1-1.3,0.3-2.4,0.3c-3.1,0-4.3-1.8-4.3-4.9V596z"/>
		<path class="st0" d="M322.6,587.6c1.1,0,1.9,0.9,1.9,1.9s-0.9,1.9-1.9,1.9c-1.1,0-1.9-0.9-1.9-1.9S321.5,587.6,322.6,587.6z
			 M321.2,593.8h2.7v14.3h-2.7V593.8z"/>
		<path class="st0" d="M329.5,596h-2v-2.2h2v-3.4c0.3-0.1,1.3-0.6,2.7-0.7v4.1h3.5v2.2h-3.5v7.3c0,2.2,0.3,2.7,2,2.7
			c0.7,0,1.7-0.3,2-0.4v2.4c-0.3,0.1-1.3,0.3-2.4,0.3c-3.1,0-4.3-1.8-4.3-4.9V596z"/>
		<path class="st0" d="M338.2,593.8h2.9c0.8,3.9,2.2,8,2.7,9.3c0.4,1.1,0.6,2.3,0.6,2.9c1.5-3.5,3-8.3,3.7-12.3h2.9
			c-1,4.5-2.8,9.6-5,14.6c-1.1,2.5-2.7,5.5-6.1,5.5c-0.8,0-1.6-0.1-2-0.3v-2.4c0.3,0.2,1.3,0.4,2,0.4c1.6,0,2.9-1.5,2.9-3.1
			c0-1.1-0.4-2.3-0.8-3.1C341.4,604,339.4,598.8,338.2,593.8z"/>
		<path class="st0" d="M203.4,650v-19.3c0.7-0.2,3.8-0.4,5.4-0.4c4.8,0,7,1.8,7,5.2c0,1.7-1.2,3.5-3.1,4.1c2.2,0.4,4.1,2.2,4.1,4.9
			c0,3.6-1.9,5.8-8.1,5.8C205.9,650.3,204.8,650.2,203.4,650z M206.2,633v5.9h2.3c3.3,0,4.4-1.5,4.4-3.2s-0.9-2.8-4.2-2.8
			C207.8,632.8,207.1,632.9,206.2,633z M206.2,641.2v6.5c0.9,0.1,1.7,0.1,3.4,0.1c3.4,0,4.3-1.5,4.3-3.4s-1.1-3.2-4.6-3.2H206.2z"/>
		<path class="st0" d="M221,635.8h2.3c0.2,0.6,0.3,1.2,0.3,1.8c0.8-1.3,2.3-2.1,3.8-2.1c0.4,0,0.8,0.1,1,0.1v2.7
			c-0.5-0.2-0.9-0.3-1.4-0.3c-2.4,0-3.2,1.3-3.2,3.6v8.5H221V635.8z"/>
		<path class="st0" d="M242.2,650.1h-2.3c-0.2-0.6-0.3-0.9-0.3-1.5c-1.5,1.5-2.9,1.8-4.6,1.8c-2.3,0-4.1-1.8-4.1-4.1
			c0-1.9,1-3.6,4.3-4.5l2.4-0.7c1.4-0.4,1.9-0.8,1.9-1.7c0-1-0.8-1.7-2.5-1.7c-1.7,0-3.6,0.5-4.9,1v-2.3c1.2-0.7,3.2-1,4.9-1
			c3.4,0,5.3,1.3,5.3,5.1V650.1z M239.5,642.4c-0.3,0.3-0.5,0.5-1.2,0.7l-2.3,0.7c-2.1,0.6-2.4,1.4-2.4,2.3c0,1.2,0.8,2,2.1,2
			c2.5,0,3.8-1.3,3.8-3V642.4z"/>
		<path class="st0" d="M258.3,638c0.4,0.9,0.5,2.1,0.5,3.8v8.3h-2.7v-7.4c0-2.1-0.1-2.5-0.3-3.2c-0.3-1-1.1-1.6-2.3-1.6
			c-2.3,0-3.7,1.4-3.7,5v7.2h-2.7v-14.3h2.3c0.2,0.6,0.3,1.5,0.3,2.2c0.8-1.6,2.2-2.6,4.6-2.6C255.8,635.4,257.5,636.1,258.3,638z"
			/>
		<path class="st0" d="M275.3,650.1h-2.3c-0.2-0.6-0.3-1.1-0.3-1.7c-0.9,1.3-2,2.1-3.8,2.1c-4,0-5.9-3-5.9-7.5
			c0-4.5,1.9-7.5,5.9-7.5c1.7,0,3.2,1.1,3.7,2.2v-7.9h2.7V650.1z M269.1,637.8c-2.6,0-3.4,2-3.4,5.1c0,3.1,0.8,5.2,3.4,5.2
			c2.6,0,3.4-2.1,3.4-5.2C272.5,639.9,271.7,637.8,269.1,637.8z"/>
		<path class="st0" d="M281.6,629.6c1.1,0,1.9,0.9,1.9,1.9s-0.9,1.9-1.9,1.9c-1.1,0-1.9-0.9-1.9-1.9S280.6,629.6,281.6,629.6z
			 M280.3,635.8h2.7v14.3h-2.7V635.8z"/>
		<path class="st0" d="M299.3,638c0.4,0.9,0.5,2.1,0.5,3.8v8.3h-2.7v-7.4c0-2.1-0.1-2.5-0.3-3.2c-0.3-1-1.1-1.6-2.3-1.6
			c-2.3,0-3.7,1.4-3.7,5v7.2h-2.7v-14.3h2.3c0.2,0.6,0.3,1.5,0.3,2.2c0.8-1.6,2.2-2.6,4.6-2.6C296.7,635.4,298.4,636.1,299.3,638z"
			/>
		<path class="st0" d="M316.2,649c0,4.5-2.9,7-6.8,7c-2.2,0-3.7-0.6-4.5-1.3V652c1.2,1,2.8,1.6,4.5,1.6c2.8,0,4-2.2,4-4.5v-1.3
			c-0.9,1.1-2,1.9-3.7,1.9c-4,0-5.9-3-5.9-7.1c0-4.1,1.9-7.1,5.9-7.1c1.8,0,3,0.8,3.8,2.1c0-0.7,0.1-1.2,0.3-1.8h2.3V649z
			 M310.1,637.8c-2.6,0-3.4,2.1-3.4,4.8c0,2.7,0.8,4.8,3.4,4.8c2.6,0,3.4-2.1,3.4-4.8C313.5,639.9,312.7,637.8,310.1,637.8z"/>
		<path class="st0" d="M147.2,692v-19.3c0.7-0.2,3.8-0.4,5.4-0.4c4.8,0,7,1.8,7,5.2c0,1.7-1.2,3.5-3.1,4.1c2.2,0.4,4.1,2.2,4.1,4.9
			c0,3.6-1.9,5.8-8.1,5.8C149.8,692.3,148.7,692.2,147.2,692z M150,675v5.9h2.3c3.3,0,4.4-1.5,4.4-3.2s-0.9-2.8-4.2-2.8
			C151.7,674.8,150.9,674.9,150,675z M150,683.2v6.5c0.9,0.1,1.7,0.1,3.4,0.1c3.4,0,4.3-1.5,4.3-3.4s-1.1-3.2-4.6-3.2H150z"/>
		<path class="st0" d="M165.2,689.9c-0.4-0.9-0.5-2.1-0.5-3.8v-8.3h2.7v7.4c0,2.1,0.1,2.5,0.3,3.2c0.3,1,1.1,1.6,2.3,1.6
			c2.3,0,3.6-1.4,3.6-5v-7.2h2.7v14.3H174c-0.2-0.6-0.3-1.5-0.3-2.2c-0.8,1.6-2.2,2.6-4.5,2.6C167.7,692.4,166,691.8,165.2,689.9z"
			/>
		<path class="st0" d="M190.1,678.4v2.4c-1.1-0.5-2.7-1-4.2-1c-1.5,0-2.3,0.6-2.3,1.7c0,1,0.6,1.4,2.4,2l1.5,0.5
			c2.2,0.8,3.3,2,3.3,4c0,2.9-2,4.5-5.7,4.5c-1.7,0-2.9-0.4-4.2-1v-2.4c1.1,0.6,2.7,1.1,4.3,1.1c1.9,0,2.9-0.6,2.9-1.9
			c0-1-0.6-1.5-2.3-2.1l-1.5-0.5c-2.1-0.7-3.4-1.8-3.4-4.2c0-2.2,1.6-4.1,5.2-4.1C187.6,677.5,189.1,677.9,190.1,678.4z"/>
		<path class="st0" d="M196.5,671.6c1.1,0,1.9,0.9,1.9,1.9s-0.9,1.9-1.9,1.9c-1.1,0-1.9-0.9-1.9-1.9S195.4,671.6,196.5,671.6z
			 M195.2,677.8h2.7v14.3h-2.7V677.8z"/>
		<path class="st0" d="M214.1,680c0.4,0.9,0.5,2.1,0.5,3.8v8.3h-2.7v-7.4c0-2.1-0.1-2.5-0.3-3.2c-0.3-1-1.1-1.6-2.3-1.6
			c-2.3,0-3.7,1.4-3.7,5v7.2h-2.7v-14.3h2.3c0.2,0.6,0.3,1.5,0.3,2.2c0.8-1.6,2.2-2.6,4.6-2.6C211.6,677.4,213.3,678.1,214.1,680z"
			/>
		<path class="st0" d="M223.3,686.5c-0.9,0.2-1.3,0.6-1.3,1.4c0,0.8,0.9,2.2,3.1,2.2c1.8,0,3.8-0.5,5.4-1.3v2.3
			c-1.3,0.8-3.2,1.3-5.4,1.3c-4.2,0-6.4-3-6.4-7.5c0-4.5,2.8-7.5,6.7-7.5c3.6,0,5.2,1.8,5.2,4.1c0,2.5-1.5,3.6-4.4,4.3L223.3,686.5z
			 M221.4,685.2c0.3-0.3,0.8-0.6,1.5-0.7l2.4-0.6c1.7-0.4,2.5-1.1,2.5-2.1c0-1.3-0.8-2-2.4-2c-2.4,0-3.9,2-3.9,5.2V685.2z"/>
		<path class="st0" d="M243.5,678.4v2.4c-1.1-0.5-2.7-1-4.2-1c-1.5,0-2.3,0.6-2.3,1.7c0,1,0.6,1.4,2.4,2l1.5,0.5
			c2.2,0.8,3.3,2,3.3,4c0,2.9-2,4.5-5.7,4.5c-1.7,0-2.9-0.4-4.2-1v-2.4c1.1,0.6,2.7,1.1,4.3,1.1c1.9,0,2.9-0.6,2.9-1.9
			c0-1-0.6-1.5-2.3-2.1l-1.5-0.5c-2.1-0.7-3.4-1.8-3.4-4.2c0-2.2,1.6-4.1,5.2-4.1C241,677.5,242.6,677.9,243.5,678.4z"/>
		<path class="st0" d="M257.3,678.4v2.4c-1.1-0.5-2.7-1-4.2-1c-1.5,0-2.3,0.6-2.3,1.7c0,1,0.6,1.4,2.4,2l1.5,0.5
			c2.2,0.8,3.3,2,3.3,4c0,2.9-2,4.5-5.7,4.5c-1.7,0-2.9-0.4-4.2-1v-2.4c1.1,0.6,2.7,1.1,4.3,1.1c1.9,0,2.9-0.6,2.9-1.9
			c0-1-0.6-1.5-2.3-2.1l-1.5-0.5c-2.1-0.7-3.4-1.8-3.4-4.2c0-2.2,1.6-4.1,5.2-4.1C254.8,677.5,256.3,677.9,257.3,678.4z"/>
		<path class="st0" d="M278.2,678.4v2.4c-1.1-0.5-2.7-1-4.2-1c-1.5,0-2.3,0.6-2.3,1.7c0,1,0.6,1.4,2.4,2l1.5,0.5
			c2.2,0.8,3.3,2,3.3,4c0,2.9-2,4.5-5.7,4.5c-1.7,0-2.9-0.4-4.2-1v-2.4c1.1,0.6,2.7,1.1,4.3,1.1c1.9,0,2.9-0.6,2.9-1.9
			c0-1-0.6-1.5-2.3-2.1l-1.5-0.5c-2.1-0.7-3.4-1.8-3.4-4.2c0-2.2,1.6-4.1,5.2-4.1C275.7,677.5,277.3,677.9,278.2,678.4z"/>
		<path class="st0" d="M283.8,680h-2v-2.2h2v-3.4c0.3-0.1,1.3-0.6,2.7-0.7v4.1h3.5v2.2h-3.5v7.3c0,2.2,0.3,2.7,2,2.7
			c0.7,0,1.7-0.3,2-0.4v2.4c-0.3,0.1-1.3,0.3-2.4,0.3c-3.1,0-4.3-1.8-4.3-4.9V680z"/>
		<path class="st0" d="M294,677.8h2.3c0.2,0.6,0.3,1.2,0.3,1.8c0.8-1.3,2.3-2.1,3.8-2.1c0.4,0,0.8,0.1,1,0.1v2.7
			c-0.5-0.2-0.9-0.3-1.4-0.3c-2.4,0-3.2,1.3-3.2,3.6v8.5H294V677.8z"/>
		<path class="st0" d="M315.3,692.1h-2.3c-0.2-0.6-0.3-0.9-0.3-1.5c-1.5,1.5-2.9,1.8-4.6,1.8c-2.3,0-4.1-1.8-4.1-4.1
			c0-1.9,1-3.6,4.3-4.5l2.4-0.7c1.4-0.4,1.9-0.8,1.9-1.7c0-1-0.8-1.7-2.5-1.7c-1.7,0-3.6,0.5-4.9,1v-2.3c1.2-0.7,3.2-1,4.9-1
			c3.4,0,5.3,1.3,5.3,5.1V692.1z M312.6,684.4c-0.3,0.3-0.5,0.5-1.2,0.7l-2.3,0.7c-2.1,0.6-2.4,1.4-2.4,2.3c0,1.2,0.8,2,2.1,2
			c2.5,0,3.8-1.3,3.8-3V684.4z"/>
		<path class="st0" d="M320.7,680h-2v-2.2h2v-3.4c0.3-0.1,1.3-0.6,2.7-0.7v4.1h3.5v2.2h-3.5v7.3c0,2.2,0.3,2.7,2,2.7
			c0.7,0,1.7-0.3,2-0.4v2.4c-0.3,0.1-1.3,0.3-2.4,0.3c-3.1,0-4.3-1.8-4.3-4.9V680z"/>
		<path class="st0" d="M334.6,686.5c-0.9,0.2-1.3,0.6-1.3,1.4c0,0.8,0.9,2.2,3.1,2.2c1.8,0,3.8-0.5,5.4-1.3v2.3
			c-1.3,0.8-3.2,1.3-5.4,1.3c-4.2,0-6.4-3-6.4-7.5c0-4.5,2.8-7.5,6.7-7.5c3.6,0,5.2,1.8,5.2,4.1c0,2.5-1.5,3.6-4.4,4.3L334.6,686.5z
			 M332.8,685.2c0.3-0.3,0.8-0.6,1.5-0.7l2.4-0.6c1.7-0.4,2.5-1.1,2.5-2.1c0-1.3-0.8-2-2.4-2c-2.4,0-3.9,2-3.9,5.2V685.2z"/>
		<path class="st0" d="M357.7,691c0,4.5-2.9,7-6.8,7c-2.2,0-3.7-0.6-4.5-1.3V694c1.2,1,2.8,1.6,4.5,1.6c2.8,0,4-2.2,4-4.5v-1.3
			c-0.9,1.1-2,1.9-3.7,1.9c-4,0-5.9-3-5.9-7.1c0-4.1,1.9-7.1,5.9-7.1c1.8,0,3,0.8,3.8,2.1c0-0.7,0.1-1.2,0.3-1.8h2.3V691z
			 M351.6,679.8c-2.6,0-3.4,2.1-3.4,4.8c0,2.7,0.8,4.8,3.4,4.8c2.6,0,3.4-2.1,3.4-4.8C355,681.9,354.1,679.8,351.6,679.8z"/>
		<path class="st0" d="M361.2,677.8h2.9c0.8,3.9,2.2,8,2.7,9.3c0.4,1.1,0.6,2.3,0.6,2.9c1.5-3.5,3-8.3,3.7-12.3h2.9
			c-1,4.5-2.8,9.6-5,14.6c-1.1,2.5-2.7,5.5-6.1,5.5c-0.8,0-1.6-0.1-2-0.3v-2.4c0.3,0.2,1.3,0.4,2,0.4c1.6,0,2.9-1.5,2.9-3.1
			c0-1.1-0.4-2.3-0.8-3.1C364.4,688,362.5,682.8,361.2,677.8z"/>
	</g>
</g>
<g>
	<path d="M382,179.1c2-0.4,5.5-0.5,7.8-0.5c5.7,0,9.9,2.3,9.9,8.1c0,6.1-3.5,8.6-9.1,9.1c-4.6,0.4-4.8,0.4-4.8,5.3v4.3H382V179.1z
		 M385.8,193.6c0.9-0.5,1.4-0.8,4.9-1.1c3.7-0.4,5-2.1,5-5.9c0-2.8-1.7-4.8-6.2-4.8c-1.2,0-2.5,0.1-3.8,0.3V193.6z"/>
	<path d="M404.9,186h3.2c0.3,0.8,0.3,1.6,0.3,2.5c1.1-1.7,3.1-2.9,5.1-2.9c0.6,0,1.1,0.1,1.4,0.2v3.6c-0.7-0.2-1.3-0.3-1.9-0.3
		c-3.3,0-4.4,1.7-4.4,4.9v11.5h-3.7V186z"/>
	<path d="M426.9,205.8c-5.5,0-8.7-4.1-8.7-10.1s3.2-10.1,8.7-10.1s8.7,4.1,8.7,10.1S432.4,205.8,426.9,205.8z M426.9,188.6
		c-3.5,0-4.9,2.8-4.9,7c0,4.2,1.4,7,4.9,7s4.9-2.8,4.9-7C431.8,191.5,430.4,188.6,426.9,188.6z"/>
	<path d="M456.8,205.3h-3.2c-0.3-0.8-0.3-1.4-0.3-2.4c-1.2,1.7-2.8,2.8-5.2,2.8c-5.5,0-8-4.1-8-10.1s2.5-10.1,8-10.1
		c2.4,0,4.3,1.5,5,3v-10.7h3.7V205.3z M448.4,188.7c-3.5,0-4.6,2.7-4.6,6.9c0,4.2,1.1,7,4.6,7s4.6-2.8,4.6-7
		C453.1,191.5,451.9,188.7,448.4,188.7z"/>
	<path d="M464.1,202.4c-0.5-1.2-0.7-2.8-0.7-5.1V186h3.7V196c0,2.9,0.1,3.5,0.4,4.3c0.4,1.3,1.4,2.2,3.2,2.2c3.1,0,4.9-1.9,4.9-6.7
		V186h3.7v19.4h-3.2c-0.3-0.8-0.4-2.1-0.4-3c-1.1,2.1-2.9,3.5-6.1,3.5C467.6,205.8,465.2,204.9,464.1,202.4z"/>
	<path d="M498,205c-1.5,0.6-2.7,0.8-4.5,0.8c-5.5,0-8.7-4.1-8.7-10.1s3.2-10.1,8.7-10.1c1.8,0,3,0.2,4.5,0.8v3.2
		c-1.6-0.6-2.7-0.8-4.5-0.8c-3.5,0-4.9,2.8-4.9,7c0,4.2,1.4,7,4.9,7c1.8,0,2.9-0.2,4.5-0.8V205z"/>
	<path d="M504,188.9h-2.7V186h2.7v-4.7c0.4-0.2,1.8-0.8,3.7-1v5.6h4.8v2.9h-4.8v9.9c0,3,0.4,3.7,2.7,3.7c0.9,0,2.3-0.3,2.7-0.6v3.2
		c-0.5,0.2-1.7,0.5-3.3,0.5c-4.3,0-5.8-2.4-5.8-6.7V188.9z"/>
	<path d="M529.7,186.8v3.2c-1.4-0.7-3.6-1.4-5.7-1.4c-2,0-3.2,0.9-3.2,2.3c0,1.4,0.8,1.9,3.2,2.8l2.1,0.7c3,1,4.4,2.7,4.4,5.4
		c0,3.9-2.7,6.1-7.8,6.1c-2.3,0-3.9-0.5-5.7-1.3v-3.2c1.4,0.8,3.7,1.5,5.8,1.5c2.6,0,4-0.9,4-2.5c0-1.4-0.8-2.1-3.1-2.8l-2-0.7
		c-2.8-0.9-4.6-2.5-4.6-5.7c0-2.9,2.1-5.5,7-5.5C526.3,185.5,528.4,186.1,529.7,186.8z"/>
</g>
<g>
	<path class="st0" d="M404.1,237.7h2.8v19.5h-2.8V237.7z"/>
	<path class="st0" d="M423.6,257.2h-2.3c-0.2-0.6-0.3-1.1-0.3-1.7c-0.9,1.3-2,2.1-3.8,2.1c-4,0-5.9-3-5.9-7.5s1.9-7.5,5.9-7.5
		c1.7,0,3.2,1.1,3.7,2.2v-7.9h2.7V257.2z M417.5,245c-2.6,0-3.4,2-3.4,5.1c0,3.1,0.8,5.2,3.4,5.2s3.4-2.1,3.4-5.2
		C420.9,247,420.1,245,417.5,245z"/>
	<path class="st0" d="M432.4,251.7c-0.9,0.2-1.3,0.6-1.3,1.4c0,0.8,0.9,2.2,3.1,2.2c1.8,0,3.8-0.5,5.4-1.3v2.3
		c-1.3,0.8-3.2,1.3-5.4,1.3c-4.2,0-6.4-3-6.4-7.5s2.8-7.5,6.7-7.5c3.6,0,5.2,1.8,5.2,4.1c0,2.5-1.5,3.6-4.4,4.3L432.4,251.7z
		 M430.5,250.4c0.3-0.3,0.8-0.6,1.5-0.7l2.4-0.6c1.7-0.4,2.5-1.1,2.5-2.1c0-1.3-0.8-2-2.4-2c-2.4,0-3.9,2-3.9,5.2V250.4z"/>
	<path class="st0" d="M454.4,257.2h-2.3c-0.2-0.6-0.3-0.9-0.3-1.5c-1.5,1.5-2.9,1.8-4.6,1.8c-2.3,0-4.1-1.8-4.1-4.1
		c0-1.9,1-3.6,4.3-4.5l2.4-0.7c1.4-0.4,1.9-0.8,1.9-1.7c0-1-0.8-1.7-2.5-1.7c-1.7,0-3.6,0.5-4.9,1v-2.3c1.2-0.7,3.2-1,4.9-1
		c3.4,0,5.3,1.3,5.3,5.1V257.2z M451.7,249.6c-0.3,0.3-0.5,0.5-1.2,0.7l-2.3,0.7c-2.1,0.6-2.4,1.4-2.4,2.3c0,1.2,0.8,2,2.1,2
		c2.5,0,3.8-1.3,3.8-3V249.6z"/>
	<path class="st0" d="M459.9,245.1h-2v-2.2h2v-3.4c0.3-0.1,1.3-0.6,2.7-0.7v4.1h3.5v2.2h-3.5v7.3c0,2.2,0.3,2.7,2,2.7
		c0.7,0,1.7-0.3,2-0.4v2.4c-0.3,0.1-1.3,0.3-2.4,0.3c-3.1,0-4.3-1.8-4.3-4.9V245.1z"/>
	<path class="st0" d="M471.4,236.8c1.1,0,1.9,0.9,1.9,1.9c0,1.1-0.9,1.9-1.9,1.9c-1.1,0-1.9-0.9-1.9-1.9
		C469.5,237.6,470.4,236.8,471.4,236.8z M470.1,242.9h2.7v14.3h-2.7V242.9z"/>
	<path class="st0" d="M483.3,257.6c-4,0-6.4-3-6.4-7.5s2.4-7.5,6.4-7.5s6.4,3,6.4,7.5S487.4,257.6,483.3,257.6z M483.3,244.9
		c-2.6,0-3.6,2.1-3.6,5.2c0,3.1,1,5.2,3.6,5.2s3.6-2.1,3.6-5.2C486.9,247,485.9,244.9,483.3,244.9z"/>
	<path class="st0" d="M505.1,245.1c0.4,0.9,0.5,2.1,0.5,3.8v8.3h-2.7v-7.4c0-2.1-0.1-2.5-0.3-3.2c-0.3-1-1.1-1.6-2.3-1.6
		c-2.3,0-3.7,1.4-3.7,5v7.2h-2.7v-14.3h2.3c0.2,0.6,0.3,1.5,0.3,2.2c0.8-1.6,2.2-2.6,4.6-2.6C502.5,242.6,504.3,243.2,505.1,245.1z"
		/>
	<path class="st0" d="M333.5,280.4v2.5c-1.4-0.6-3.4-1.1-5.3-1.1c-2.3,0-3.6,1-3.6,2.8c0,1.4,0.6,2.1,2.5,2.8l2.7,1
		c3.1,1.1,4.5,2.8,4.5,5.5c0,3.6-2.6,5.7-7.4,5.7c-2.1,0-3.6-0.4-5.3-1.2v-2.5c1.4,0.6,3.5,1.3,5.4,1.3c2.7,0,4.4-1,4.4-2.9
		c0-1.6-1-2.5-3.4-3.4l-2.1-0.7c-2.9-1-4.3-2.8-4.3-5.2c0-3.1,2-5.5,6.6-5.5C330.3,279.3,332.2,279.8,333.5,280.4z"/>
	<path class="st0" d="M339.2,287.1h-2v-2.2h2v-3.4c0.3-0.1,1.3-0.6,2.7-0.7v4.1h3.5v2.2h-3.5v7.3c0,2.2,0.3,2.7,2,2.7
		c0.7,0,1.7-0.3,2-0.4v2.4c-0.3,0.1-1.3,0.3-2.4,0.3c-3.1,0-4.3-1.8-4.3-4.9V287.1z"/>
	<path class="st0" d="M347.9,284.9h2.9c0.8,3.9,2.2,8,2.7,9.3c0.4,1.1,0.6,2.3,0.6,2.9c1.5-3.5,3-8.3,3.7-12.3h2.9
		c-1,4.5-2.8,9.6-5,14.6c-1.1,2.5-2.7,5.5-6.1,5.5c-0.8,0-1.6-0.1-2-0.3v-2.4c0.3,0.2,1.3,0.4,2,0.4c1.6,0,2.9-1.5,2.9-3.1
		c0-1.1-0.4-2.3-0.8-3.1C351.1,295.1,349.1,290,347.9,284.9z"/>
	<path class="st0" d="M364,278.9h2.7v15.7c0,1.7,0.3,2.2,1.4,2.2h0.6v2.3c-0.3,0.1-0.7,0.1-1.3,0.1c-2.2,0-3.4-1.4-3.4-4.5V278.9z"
		/>
	<path class="st0" d="M373.7,278.8c1.1,0,1.9,0.9,1.9,1.9c0,1.1-0.9,1.9-1.9,1.9c-1.1,0-1.9-0.9-1.9-1.9
		C371.8,279.6,372.6,278.8,373.7,278.8z M372.3,284.9h2.7v14.3h-2.7V284.9z"/>
	<path class="st0" d="M391.3,287.1c0.4,0.9,0.5,2.1,0.5,3.8v8.3h-2.7v-7.4c0-2.1-0.1-2.5-0.3-3.2c-0.3-1-1.1-1.6-2.3-1.6
		c-2.3,0-3.7,1.4-3.7,5v7.2h-2.7v-14.3h2.3c0.2,0.6,0.3,1.5,0.3,2.2c0.8-1.6,2.2-2.6,4.6-2.6C388.8,284.6,390.5,285.2,391.3,287.1z"
		/>
	<path class="st0" d="M408.3,298.1c0,4.5-2.9,7-6.8,7c-2.2,0-3.7-0.6-4.5-1.3v-2.6c1.2,1,2.8,1.6,4.5,1.6c2.8,0,4-2.2,4-4.5V297
		c-0.9,1.1-2,1.9-3.7,1.9c-4,0-5.9-3-5.9-7.1s1.9-7.1,5.9-7.1c1.8,0,3,0.8,3.8,2.1c0-0.7,0.1-1.2,0.3-1.8h2.3V298.1z M402.1,286.9
		c-2.6,0-3.4,2.1-3.4,4.8c0,2.7,0.8,4.8,3.4,4.8s3.4-2.1,3.4-4.8C405.6,289,404.7,286.9,402.1,286.9z"/>
	<path class="st0" d="M426.1,278.9h2.5l-7.9,22.2h-2.5L426.1,278.9z"/>
	<path class="st0" d="M438.8,279.8c1.5-0.3,4.1-0.4,5.7-0.4c4.2,0,7.3,1.7,7.3,6c0,4.5-2.6,6.4-6.7,6.7c-3.4,0.3-3.5,0.3-3.5,3.9
		v3.2h-2.8V279.8z M441.6,290.6c0.7-0.3,1.1-0.6,3.6-0.8c2.7-0.3,3.7-1.5,3.7-4.3c0-2.1-1.2-3.5-4.5-3.5c-0.9,0-1.9,0.1-2.8,0.2
		V290.6z"/>
	<path class="st0" d="M455.7,284.9h2.3c0.2,0.6,0.3,1.2,0.3,1.8c0.8-1.3,2.3-2.1,3.8-2.1c0.4,0,0.8,0.1,1,0.1v2.7
		c-0.5-0.2-0.9-0.3-1.4-0.3c-2.4,0-3.2,1.3-3.2,3.6v8.5h-2.7V284.9z"/>
	<path class="st0" d="M471.9,299.6c-4,0-6.4-3-6.4-7.5s2.4-7.5,6.4-7.5c4,0,6.4,3,6.4,7.5S475.9,299.6,471.9,299.6z M471.9,286.9
		c-2.6,0-3.6,2.1-3.6,5.2c0,3.1,1,5.2,3.6,5.2s3.6-2.1,3.6-5.2C475.5,289,474.5,286.9,471.9,286.9z"/>
	<path class="st0" d="M482.9,287.1h-2v-2.2h2v-3.4c0.3-0.1,1.3-0.6,2.7-0.7v4.1h3.5v2.2h-3.5v7.3c0,2.2,0.3,2.7,2,2.7
		c0.7,0,1.7-0.3,2-0.4v2.4c-0.3,0.1-1.3,0.3-2.4,0.3c-3.1,0-4.3-1.8-4.3-4.9V287.1z"/>
	<path class="st0" d="M498.6,299.6c-4,0-6.4-3-6.4-7.5s2.4-7.5,6.4-7.5c4,0,6.4,3,6.4,7.5S502.7,299.6,498.6,299.6z M498.6,286.9
		c-2.6,0-3.6,2.1-3.6,5.2c0,3.1,1,5.2,3.6,5.2s3.6-2.1,3.6-5.2C502.2,289,501.2,286.9,498.6,286.9z"/>
	<path class="st0" d="M509.7,287.1h-2v-2.2h2v-3.4c0.3-0.1,1.3-0.6,2.7-0.7v4.1h3.5v2.2h-3.5v7.3c0,2.2,0.3,2.7,2,2.7
		c0.7,0,1.7-0.3,2-0.4v2.4c-0.3,0.1-1.3,0.3-2.4,0.3c-3.1,0-4.3-1.8-4.3-4.9V287.1z"/>
	<path class="st0" d="M518.4,284.9h2.9c0.8,3.9,2.2,8,2.7,9.3c0.4,1.1,0.6,2.3,0.6,2.9c1.5-3.5,3-8.3,3.7-12.3h2.9
		c-1,4.5-2.8,9.6-5,14.6c-1.1,2.5-2.7,5.5-6.1,5.5c-0.8,0-1.6-0.1-2-0.3v-2.4c0.3,0.2,1.3,0.4,2,0.4c1.6,0,2.9-1.5,2.9-3.1
		c0-1.1-0.4-2.3-0.8-3.1C521.6,295.1,519.6,290,518.4,284.9z"/>
	<path class="st0" d="M546.9,292.1c0,4.5-1.9,7.5-5.9,7.5c-1.7,0-3.2-1-3.7-2.1v7.3h-2.7v-19.8h2.3c0.2,0.6,0.3,1.1,0.3,1.7
		c0.9-1.3,2-2.1,3.8-2.1C545,284.6,546.9,287.6,546.9,292.1z M537.3,292.1c0,3.1,0.8,5.1,3.4,5.1c2.6,0,3.4-2,3.4-5.1
		c0-3.1-0.8-5.2-3.4-5.2C538.1,286.9,537.3,289,537.3,292.1z"/>
	<path class="st0" d="M552.4,278.8c1.1,0,1.9,0.9,1.9,1.9c0,1.1-0.9,1.9-1.9,1.9c-1.1,0-1.9-0.9-1.9-1.9
		C550.5,279.6,551.3,278.8,552.4,278.8z M551.1,284.9h2.7v14.3h-2.7V284.9z"/>
	<path class="st0" d="M570,287.1c0.4,0.9,0.5,2.1,0.5,3.8v8.3h-2.7v-7.4c0-2.1-0.1-2.5-0.3-3.2c-0.3-1-1.1-1.6-2.3-1.6
		c-2.3,0-3.7,1.4-3.7,5v7.2h-2.7v-14.3h2.3c0.2,0.6,0.3,1.5,0.3,2.2c0.8-1.6,2.2-2.6,4.6-2.6C567.5,284.6,569.2,285.2,570,287.1z"/>
	<path class="st0" d="M587,298.1c0,4.5-2.9,7-6.8,7c-2.2,0-3.7-0.6-4.5-1.3v-2.6c1.2,1,2.8,1.6,4.5,1.6c2.8,0,4-2.2,4-4.5V297
		c-0.9,1.1-2,1.9-3.7,1.9c-4,0-5.9-3-5.9-7.1s1.9-7.1,5.9-7.1c1.8,0,3,0.8,3.8,2.1c0-0.7,0.1-1.2,0.3-1.8h2.3V298.1z M580.9,286.9
		c-2.6,0-3.4,2.1-3.4,4.8c0,2.7,0.8,4.8,3.4,4.8s3.4-2.1,3.4-4.8C584.3,289,583.4,286.9,580.9,286.9z"/>
	<path class="st0" d="M379.1,321.8c1.5-0.3,4.1-0.4,5.7-0.4c4.2,0,7.3,1.7,7.3,6c0,4.5-2.6,6.4-6.7,6.7c-3.4,0.3-3.5,0.3-3.5,3.9
		v3.2h-2.8V321.8z M381.9,332.6c0.7-0.3,1.1-0.6,3.6-0.8c2.7-0.3,3.7-1.5,3.7-4.3c0-2.1-1.2-3.5-4.5-3.5c-0.9,0-1.9,0.1-2.8,0.2
		V332.6z"/>
	<path class="st0" d="M396.1,321.8c1.5-0.3,4.1-0.4,5.7-0.4c4.9,0,7.3,2.3,7.3,6.1c0,2.9-2.1,5-4.4,5.5c1.5,1.6,4,5.2,5.4,8.1H407
		c-1.2-2.5-3.7-6.2-5-7.6l-1,0.2c-1.9,0.3-2.1,0.8-2.1,3.8v3.6h-2.8V321.8z M398.9,332.1c0.7-0.3,1-0.5,3.3-0.8c2.4-0.3,4-1.3,4-3.7
		c0-2.2-1.2-3.7-4.5-3.7c-0.9,0-1.9,0.1-2.8,0.2V332.1z"/>
	<path class="st0" d="M433.4,334.1c0,4.5-1.9,7.5-5.9,7.5c-1.7,0-3.2-1-3.7-2.1v7.3H421v-19.8h2.3c0.2,0.6,0.3,1.1,0.3,1.7
		c0.9-1.3,2-2.1,3.8-2.1C431.5,326.6,433.4,329.6,433.4,334.1z M423.8,334.1c0,3.1,0.8,5.1,3.4,5.1c2.6,0,3.4-2,3.4-5.1
		c0-3.1-0.8-5.2-3.4-5.2C424.6,328.9,423.8,331,423.8,334.1z"/>
	<path class="st0" d="M437.4,320.9h2.7v15.7c0,1.7,0.3,2.2,1.4,2.2h0.6v2.3c-0.3,0.1-0.7,0.1-1.3,0.1c-2.2,0-3.4-1.4-3.4-4.5V320.9z
		"/>
	<path class="st0" d="M456.3,341.2H454c-0.2-0.6-0.3-0.9-0.3-1.5c-1.5,1.5-2.9,1.8-4.6,1.8c-2.3,0-4.1-1.8-4.1-4.1
		c0-1.9,1-3.6,4.3-4.5l2.4-0.7c1.4-0.4,1.9-0.8,1.9-1.7c0-1-0.8-1.7-2.5-1.7c-1.7,0-3.6,0.5-4.9,1v-2.3c1.2-0.7,3.2-1,4.9-1
		c3.4,0,5.3,1.3,5.3,5.1V341.2z M453.6,333.6c-0.3,0.3-0.5,0.5-1.2,0.7l-2.3,0.7c-2.1,0.6-2.4,1.4-2.4,2.3c0,1.2,0.8,2,2.1,2
		c2.5,0,3.8-1.3,3.8-3V333.6z"/>
	<path class="st0" d="M472.5,329.1c0.4,0.9,0.5,2.1,0.5,3.8v8.3h-2.7v-7.4c0-2.1-0.1-2.5-0.3-3.2c-0.3-1-1.1-1.6-2.3-1.6
		c-2.3,0-3.7,1.4-3.7,5v7.2h-2.7v-14.3h2.3c0.2,0.6,0.3,1.5,0.3,2.2c0.8-1.6,2.2-2.6,4.6-2.6C469.9,326.6,471.7,327.2,472.5,329.1z"
		/>
	<path class="st0" d="M489.1,329.1c0.4,0.9,0.5,2.1,0.5,3.8v8.3h-2.7v-7.4c0-2.1-0.1-2.5-0.3-3.2c-0.3-1-1.1-1.6-2.3-1.6
		c-2.3,0-3.7,1.4-3.7,5v7.2h-2.7v-14.3h2.3c0.2,0.6,0.3,1.5,0.3,2.2c0.8-1.6,2.2-2.6,4.6-2.6C486.6,326.6,488.3,327.2,489.1,329.1z"
		/>
	<path class="st0" d="M495.9,320.8c1.1,0,1.9,0.9,1.9,1.9c0,1.1-0.9,1.9-1.9,1.9c-1.1,0-1.9-0.9-1.9-1.9
		C494,321.6,494.9,320.8,495.9,320.8z M494.6,326.9h2.7v14.3h-2.7V326.9z"/>
	<path class="st0" d="M513.5,329.1c0.4,0.9,0.5,2.1,0.5,3.8v8.3h-2.7v-7.4c0-2.1-0.1-2.5-0.3-3.2c-0.3-1-1.1-1.6-2.3-1.6
		c-2.3,0-3.7,1.4-3.7,5v7.2h-2.7v-14.3h2.3c0.2,0.6,0.3,1.5,0.3,2.2c0.8-1.6,2.2-2.6,4.6-2.6C511,326.6,512.7,327.2,513.5,329.1z"/>
	<path class="st0" d="M530.5,340.1c0,4.5-2.9,7-6.8,7c-2.2,0-3.7-0.6-4.5-1.3v-2.6c1.2,1,2.8,1.6,4.5,1.6c2.8,0,4-2.2,4-4.5V339
		c-0.9,1.1-2,1.9-3.7,1.9c-4,0-5.9-3-5.9-7.1s1.9-7.1,5.9-7.1c1.8,0,3,0.8,3.8,2.1c0-0.7,0.1-1.2,0.3-1.8h2.3V340.1z M524.4,328.9
		c-2.6,0-3.4,2.1-3.4,4.8c0,2.7,0.8,4.8,3.4,4.8c2.6,0,3.4-2.1,3.4-4.8C527.8,331,527,328.9,524.4,328.9z"/>
</g>
<g>
	<g>
		<path class="st0" d="M610.3,601c0,3.1,1.6,4.9,4.4,4.9c2.8,0,4.3-1.8,4.3-4.9v-12.5h2.8v12.7c0,4.5-3,7.2-7.1,7.2
			c-4.2,0-7.2-2.7-7.2-7.2v-12.7h2.8V601z"/>
		<path class="st0" d="M627.1,588.5h2.8v19.5h-2.8V588.5z"/>
		<path class="st0" d="M647.9,587.8h2.5l-7.9,22.2H640L647.9,587.8z"/>
		<path class="st0" d="M663.3,601c0,3.1,1.6,4.9,4.4,4.9c2.8,0,4.3-1.8,4.3-4.9v-12.5h2.8v12.7c0,4.5-3,7.2-7.1,7.2
			c-4.2,0-7.2-2.7-7.2-7.2v-12.7h2.8V601z"/>
		<path class="st0" d="M690.4,608.1c-0.8-1.9-2.8-5.8-4.4-8.1c-1.6,2.3-3.5,6.2-4.4,8.1h-3.2c1.1-2.6,3.9-7.5,5.8-10
			c-1.7-2.4-4.3-6.8-5.5-9.5h3.2c1,2.2,2.7,5.6,4.1,7.6c1.3-2.1,3.1-5.4,4.1-7.6h3.2c-1.2,2.7-3.7,7.1-5.5,9.5
			c1.9,2.5,4.7,7.4,5.8,10H690.4z"/>
		<path class="st0" d="M552.6,642.1v-2.5h6.4v6.2c0,1.9-0.3,2.6-1.9,3.5c-1.1,0.6-2.6,1-4.5,1c-5.8,0-8.5-3.5-8.5-10.1
			c0-6.6,2.9-10.1,8.7-10.1c3,0,4.5,0.5,5.5,1v2.6c-1.4-0.6-3-1.1-5.5-1.1c-4.4,0-5.8,3.1-5.8,7.6c0,4.6,1.2,7.6,5.6,7.6
			c0.8,0,1.5-0.1,2.3-0.3c0.8-0.2,1.3-0.5,1.3-1.6v-3.9H552.6z"/>
		<path class="st0" d="M563.9,635.8h2.3c0.2,0.6,0.3,1.2,0.3,1.8c0.8-1.3,2.3-2.1,3.8-2.1c0.4,0,0.8,0.1,1,0.1v2.7
			c-0.5-0.2-0.9-0.3-1.4-0.3c-2.4,0-3.2,1.3-3.2,3.6v8.5h-2.7V635.8z"/>
		<path class="st0" d="M585.2,650.1h-2.3c-0.2-0.6-0.3-0.9-0.3-1.5c-1.5,1.5-2.9,1.8-4.6,1.8c-2.3,0-4.1-1.8-4.1-4.1
			c0-1.9,1-3.6,4.3-4.5l2.4-0.7c1.4-0.4,1.9-0.8,1.9-1.7c0-1-0.8-1.7-2.5-1.7c-1.7,0-3.6,0.5-4.9,1v-2.3c1.2-0.7,3.2-1,4.9-1
			c3.4,0,5.3,1.3,5.3,5.1V650.1z M582.4,642.4c-0.3,0.3-0.5,0.5-1.2,0.7l-2.3,0.7c-2.1,0.6-2.4,1.4-2.4,2.3c0,1.2,0.8,2,2.1,2
			c2.5,0,3.8-1.3,3.8-3V642.4z"/>
		<path class="st0" d="M602.4,642.9c0,4.5-1.9,7.5-5.9,7.5c-1.7,0-3.2-1-3.7-2.1v7.3h-2.7v-19.8h2.3c0.2,0.6,0.3,1.1,0.3,1.7
			c0.9-1.3,2-2.1,3.8-2.1C600.5,635.5,602.4,638.5,602.4,642.9z M592.8,642.9c0,3.1,0.8,5.1,3.4,5.1c2.6,0,3.4-2,3.4-5.1
			c0-3.1-0.8-5.2-3.4-5.2C593.6,637.8,592.8,639.9,592.8,642.9z"/>
		<path class="st0" d="M615.6,642.7c0-2.1-0.1-2.5-0.3-3.2c-0.3-1-1.1-1.6-2.3-1.6c-2.3,0-3.7,1.4-3.7,5v7.2h-2.7v-20.3h2.7v8.1
			c0.8-1.5,2.1-2.5,4.5-2.5c1.5,0,3.2,0.7,4,2.5c0.4,0.9,0.5,2.1,0.5,3.8v8.3h-2.7V642.7z"/>
		<path class="st0" d="M624.6,629.6c1.1,0,1.9,0.9,1.9,1.9s-0.9,1.9-1.9,1.9c-1.1,0-1.9-0.9-1.9-1.9S623.5,629.6,624.6,629.6z
			 M623.3,635.8h2.7v14.3h-2.7V635.8z"/>
		<path class="st0" d="M639.8,649.9c-1.1,0.4-2,0.6-3.3,0.6c-4,0-6.4-3-6.4-7.5c0-4.5,2.4-7.5,6.4-7.5c1.3,0,2.2,0.1,3.3,0.6v2.4
			c-1.2-0.4-2-0.6-3.3-0.6c-2.6,0-3.6,2.1-3.6,5.2c0,3.1,1,5.2,3.6,5.2c1.3,0,2.2-0.2,3.3-0.6V649.9z"/>
		<path class="st0" d="M656.6,629.8h2.5l-7.9,22.2h-2.5L656.6,629.8z"/>
		<path class="st0" d="M680.1,631.3v2.5c-1.4-0.6-3.4-1.1-5.3-1.1c-2.3,0-3.6,1-3.6,2.8c0,1.4,0.6,2.1,2.5,2.8l2.7,1
			c3.1,1.1,4.5,2.8,4.5,5.5c0,3.6-2.6,5.7-7.4,5.7c-2.1,0-3.6-0.4-5.3-1.2v-2.5c1.4,0.6,3.5,1.3,5.4,1.3c2.7,0,4.4-1,4.4-2.9
			c0-1.6-1-2.5-3.4-3.4l-2.1-0.7c-2.9-1-4.3-2.8-4.3-5.2c0-3.1,2-5.5,6.6-5.5C677,630.2,678.8,630.6,680.1,631.3z"/>
		<path class="st0" d="M697.7,642.9c0,4.5-1.9,7.5-5.9,7.5c-1.7,0-3.2-1-3.7-2.1v7.3h-2.7v-19.8h2.3c0.2,0.6,0.3,1.1,0.3,1.7
			c0.9-1.3,2-2.1,3.8-2.1C695.8,635.5,697.7,638.5,697.7,642.9z M688.1,642.9c0,3.1,0.8,5.1,3.4,5.1s3.4-2,3.4-5.1
			c0-3.1-0.8-5.2-3.4-5.2S688.1,639.9,688.1,642.9z"/>
		<path class="st0" d="M712.4,650.1h-2.3c-0.2-0.6-0.3-0.9-0.3-1.5c-1.5,1.5-2.9,1.8-4.6,1.8c-2.3,0-4.1-1.8-4.1-4.1
			c0-1.9,1-3.6,4.3-4.5l2.4-0.7c1.4-0.4,1.9-0.8,1.9-1.7c0-1-0.8-1.7-2.5-1.7c-1.7,0-3.6,0.5-4.9,1v-2.3c1.2-0.7,3.2-1,4.9-1
			c3.4,0,5.3,1.3,5.3,5.1V650.1z M709.7,642.4c-0.3,0.3-0.5,0.5-1.2,0.7l-2.3,0.7c-2.1,0.6-2.4,1.4-2.4,2.3c0,1.2,0.8,2,2.1,2
			c2.5,0,3.8-1.3,3.8-3V642.4z"/>
		<path class="st0" d="M717.8,638h-2v-2.2h2v-3.4c0.3-0.1,1.3-0.6,2.7-0.7v4.1h3.5v2.2h-3.5v7.3c0,2.2,0.3,2.7,2,2.7
			c0.7,0,1.7-0.3,2-0.4v2.4c-0.3,0.1-1.3,0.3-2.4,0.3c-3.1,0-4.3-1.8-4.3-4.9V638z"/>
		<path class="st0" d="M729.4,629.6c1.1,0,1.9,0.9,1.9,1.9s-0.9,1.9-1.9,1.9c-1.1,0-1.9-0.9-1.9-1.9S728.3,629.6,729.4,629.6z
			 M728,635.8h2.7v14.3H728V635.8z"/>
		<path class="st0" d="M746.3,650.1H744c-0.2-0.6-0.3-0.9-0.3-1.5c-1.5,1.5-2.9,1.8-4.6,1.8c-2.3,0-4.1-1.8-4.1-4.1
			c0-1.9,1-3.6,4.3-4.5l2.4-0.7c1.4-0.4,1.9-0.8,1.9-1.7c0-1-0.8-1.7-2.5-1.7c-1.7,0-3.6,0.5-4.9,1v-2.3c1.2-0.7,3.2-1,4.9-1
			c3.4,0,5.3,1.3,5.3,5.1V650.1z M743.6,642.4c-0.3,0.3-0.5,0.5-1.2,0.7l-2.3,0.7c-2.1,0.6-2.4,1.4-2.4,2.3c0,1.2,0.8,2,2.1,2
			c2.5,0,3.8-1.3,3.8-3V642.4z"/>
		<path class="st0" d="M751.1,629.8h2.7v15.7c0,1.7,0.3,2.2,1.4,2.2h0.6v2.3c-0.3,0.1-0.7,0.1-1.3,0.1c-2.2,0-3.4-1.4-3.4-4.5V629.8
			z"/>
		<path class="st0" d="M623.6,672.7c1.5-0.3,4.1-0.4,5.7-0.4c4.9,0,7.3,2.3,7.3,6.1c0,2.9-2.1,5-4.4,5.5c1.5,1.6,4,5.2,5.4,8.1h-3.2
			c-1.2-2.5-3.7-6.2-5-7.6l-1,0.2c-1.9,0.3-2.1,0.8-2.1,3.8v3.6h-2.8V672.7z M626.4,683c0.7-0.3,1-0.5,3.3-0.8c2.4-0.3,4-1.3,4-3.7
			c0-2.2-1.2-3.7-4.5-3.7c-0.9,0-1.9,0.1-2.8,0.2V683z"/>
		<path class="st0" d="M658.6,692.1c-0.3,0.1-0.7,0.1-1,0.1c-1.1,0-3.1-0.3-4.5-2c-1.6,1.5-3.8,2.2-5.9,2.2c-3.9,0-6.7-2.2-6.7-5.7
			s2.5-4.8,4.2-5.7c-0.8-1-1.9-2.5-1.9-4.4c0-2.5,1.8-4.4,4.7-4.4s4.7,2,4.7,4.4c0,2.5-2,4-3.9,5c0.7,1.1,2.9,3.6,4.4,5
			c0.8-1.3,1.1-3,1.1-4.7h2.7c0,2.7-0.8,5-1.8,6.4c1.6,1.3,2.6,1.4,3.6,1.4h0.3V692.1z M646,682.8c-1.7,1-2.7,1.8-2.7,4
			c0,1.9,1.6,3.2,3.8,3.2c1.5,0,2.8-0.3,4-1.3C650.1,687.7,646.8,683.9,646,682.8z M646.9,679.9c1.6-0.8,2.6-1.8,2.6-3.2
			c0-1.1-0.7-2-2-2s-2,0.9-2,2C645.4,677.9,646.1,678.9,646.9,679.9z"/>
		<path class="st0" d="M662.1,672.7c1.5-0.3,4.1-0.4,5.7-0.4c6.2,0,9,3.5,9,10.1s-2.9,9.9-9,9.9c-1.7,0-4.3-0.1-5.7-0.3V672.7z
			 M664.9,689.7c0.9,0.1,1.9,0.1,2.8,0.1c4.7,0,6.3-2.9,6.3-7.5c0-4.6-1.5-7.6-6.3-7.6c-0.9,0-1.9,0.1-2.8,0.2V689.7z"/>
	</g>
</g>
<g>
	<path d="M549.6,529.7h15.9v3.3h-12.1v7.9h10.4v3.3h-10.4v8.6h12.1v3.3h-15.9V529.7z"/>
	<path d="M582.2,556.2c-0.9-1.8-2.8-5.1-4.6-7.4c-1.7,2.4-3.6,5.6-4.6,7.4h-4c1.4-3,3.8-6.5,6.5-9.9c-2.3-3-4.7-6.5-6.1-9.5h4
		c1.2,2.4,2.6,4.8,4.2,7.1c1.6-2.3,3-4.7,4.2-7.1h4c-1.4,3-3.8,6.5-6.1,9.5c2.7,3.3,5.1,6.8,6.5,9.9H582.2z"/>
	<path d="M607.6,546.5c0,6.1-2.5,10.1-8,10.1c-2.4,0-4.3-1.3-5-2.8v9.9h-3.7v-26.9h3.2c0.3,0.8,0.3,1.4,0.3,2.4
		c1.2-1.7,2.8-2.8,5.2-2.8C605,536.4,607.6,540.4,607.6,546.5z M594.6,546.5c0,4.2,1.1,6.9,4.6,6.9c3.5,0,4.6-2.7,4.6-6.9
		c0-4.2-1.1-7-4.6-7C595.7,539.5,594.6,542.3,594.6,546.5z"/>
	<path d="M618.3,548.7c-1.2,0.3-1.8,0.9-1.8,1.9c0,1,1.2,3,4.2,3c2.4,0,5.2-0.7,7.3-1.7v3.1c-1.8,1.1-4.3,1.7-7.3,1.7
		c-5.7,0-8.7-4.1-8.7-10.1s3.8-10.1,9-10.1c4.9,0,7.1,2.4,7.1,5.5c0,3.3-2.1,4.9-6,5.8L618.3,548.7z M615.8,546.9
		c0.4-0.4,1.1-0.8,2-1l3.3-0.9c2.2-0.6,3.3-1.4,3.3-2.8c0-1.7-1.1-2.7-3.3-2.7c-3.3,0-5.3,2.8-5.3,7V546.9z"/>
	<path d="M634,536.8h3.2c0.3,0.8,0.3,1.6,0.3,2.5c1.1-1.7,3.1-2.9,5.1-2.9c0.6,0,1.1,0.1,1.4,0.2v3.6c-0.7-0.2-1.3-0.3-1.9-0.3
		c-3.3,0-4.4,1.7-4.4,4.9v11.5H634V536.8z"/>
	<path d="M650.3,528.4c1.4,0,2.6,1.2,2.6,2.6c0,1.4-1.2,2.6-2.6,2.6c-1.4,0-2.6-1.2-2.6-2.6C647.7,529.6,648.9,528.4,650.3,528.4z
		 M648.5,536.8h3.7v19.4h-3.7V536.8z"/>
	<path d="M664.1,548.7c-1.2,0.3-1.8,0.9-1.8,1.9c0,1,1.2,3,4.2,3c2.4,0,5.2-0.7,7.3-1.7v3.1c-1.8,1.1-4.3,1.7-7.3,1.7
		c-5.7,0-8.7-4.1-8.7-10.1s3.8-10.1,9-10.1c4.9,0,7.1,2.4,7.1,5.5c0,3.3-2.1,4.9-6,5.8L664.1,548.7z M661.6,546.9
		c0.4-0.4,1.1-0.8,2-1l3.3-0.9c2.2-0.6,3.3-1.4,3.3-2.8c0-1.7-1.1-2.7-3.3-2.7c-3.3,0-5.3,2.8-5.3,7V546.9z"/>
	<path d="M695,539.8c0.5,1.2,0.7,2.8,0.7,5.1v11.3H692v-10.1c0-2.9-0.1-3.5-0.4-4.3c-0.4-1.3-1.4-2.2-3.2-2.2c-3.1,0-5,1.9-5,6.7
		v9.8h-3.7v-19.4h3.2c0.3,0.8,0.4,2.1,0.4,3c1.1-2.1,3-3.5,6.2-3.5C691.5,536.3,693.8,537.2,695,539.8z"/>
	<path d="M714.3,555.9c-1.5,0.6-2.7,0.8-4.5,0.8c-5.5,0-8.7-4.1-8.7-10.1s3.2-10.1,8.7-10.1c1.8,0,3,0.2,4.5,0.8v3.2
		c-1.6-0.6-2.7-0.8-4.5-0.8c-3.5,0-4.9,2.8-4.9,7c0,4.2,1.4,7,4.9,7c1.8,0,2.9-0.2,4.5-0.8V555.9z"/>
	<path d="M724.7,548.7c-1.2,0.3-1.8,0.9-1.8,1.9c0,1,1.2,3,4.2,3c2.4,0,5.2-0.7,7.3-1.7v3.1c-1.8,1.1-4.3,1.7-7.3,1.7
		c-5.7,0-8.7-4.1-8.7-10.1s3.8-10.1,9-10.1c4.9,0,7.1,2.4,7.1,5.5c0,3.3-2.1,4.9-6,5.8L724.7,548.7z M722.2,546.9
		c0.4-0.4,1.1-0.8,2-1l3.3-0.9c2.2-0.6,3.3-1.4,3.3-2.8c0-1.7-1.1-2.7-3.3-2.7c-3.3,0-5.3,2.8-5.3,7V546.9z"/>
	<path d="M752.1,537.6v3.2c-1.4-0.7-3.6-1.4-5.7-1.4c-2,0-3.2,0.9-3.2,2.3c0,1.4,0.8,1.9,3.2,2.8l2.1,0.7c3,1,4.4,2.7,4.4,5.4
		c0,3.9-2.7,6.1-7.8,6.1c-2.3,0-3.9-0.5-5.7-1.3v-3.2c1.4,0.8,3.7,1.5,5.8,1.5c2.6,0,4-0.9,4-2.5c0-1.4-0.8-2.1-3.1-2.8l-2-0.7
		c-2.8-0.9-4.6-2.5-4.6-5.7c0-2.9,2.1-5.5,7-5.5C748.8,536.4,750.8,536.9,752.1,537.6z"/>
</g>
<g>
	<path class="st1" d="M446,767c-45.8,50.9-112.1,83-186,83C121.9,850,10,738.1,10,600c0-120.1,84.7-220.5,197.7-244.5"/>
	<path class="st1" d="M497.5,521.6c8.1,24.7,12.5,51,12.5,78.4c0,53.7-16.9,103.4-45.7,144.1"/>
	<path class="st1" d="M464.3,455.9c8.2,11.7,15.5,24.1,21.7,37.1"/>
	<path class="st1" d="M238.2,350.9c7.2-0.6,14.5-0.9,21.8-0.9c73.4,0,139.3,31.6,185.1,81.9"/>
	<path class="st1" d="M702.3,355.5C815.3,379.6,900,479.9,900,600c0,138.1-111.9,250-250,250S400,738.1,400,600
		c0-27.4,4.4-53.7,12.5-78.4"/>
	<path class="st1" d="M424,493c40.1-84.5,126.2-143,226-143c7.4,0,14.6,0.3,21.8,0.9"/>
	<circle class="st1" cx="455" cy="260" r="250"/>
</g>
</svg>
